<svg width="139" height="94" viewBox="0 0 139 94" fill="none" xmlns="http://www.w3.org/2000/svg">
<path d="M9.25398 89C8.69398 89 8.41398 88.72 8.41398 88.16V75.76C8.41398 75.2 8.69398 74.92 9.25398 74.92C9.81398 74.92 10.094 75.2 10.094 75.76V79.93C10.4407 79.5767 10.874 79.31 11.394 79.13C11.914 78.95 12.5207 78.86 13.214 78.86H13.974C15.3073 78.86 16.294 79.18 16.934 79.82C17.574 80.46 17.894 81.4467 17.894 82.78V85.08C17.894 86.4067 17.574 87.3933 16.934 88.04C16.294 88.68 15.3073 89 13.974 89H13.214C12.5207 89 11.914 88.91 11.394 88.73C10.874 88.55 10.4407 88.2867 10.094 87.94V88.16C10.094 88.72 9.81398 89 9.25398 89ZM13.214 87.32H13.974C14.8473 87.32 15.4373 87.1633 15.744 86.85C16.0573 86.53 16.214 85.94 16.214 85.08V82.78C16.214 81.9067 16.054 81.3167 15.734 81.01C15.4207 80.6967 14.834 80.54 13.974 80.54H13.214C12.334 80.54 11.594 80.6533 10.994 80.88C10.394 81.1 10.094 81.4467 10.094 81.92V85.94C10.094 86.4067 10.394 86.7533 10.994 86.98C11.594 87.2067 12.334 87.32 13.214 87.32ZM22.418 89C21.858 89 21.578 88.72 21.578 88.16V79.7C21.578 79.14 21.858 78.86 22.418 78.86C22.978 78.86 23.258 79.14 23.258 79.7V80.48C23.6514 79.9467 24.1514 79.5433 24.758 79.27C25.3714 78.9967 26.0714 78.86 26.858 78.86C27.418 78.86 27.698 79.14 27.698 79.7C27.698 80.26 27.418 80.54 26.858 80.54C25.7047 80.54 24.8247 80.7533 24.218 81.18C23.6114 81.6067 23.2914 82.17 23.258 82.87V88.16C23.258 88.72 22.978 89 22.418 89ZM30.6732 77.22C30.0399 77.22 29.7232 76.9 29.7232 76.26V75.67C29.7232 75.0433 30.0399 74.73 30.6732 74.73H31.2532C31.8599 74.73 32.1632 75.0433 32.1632 75.67V76.26C32.1632 76.9 31.8599 77.22 31.2532 77.22H30.6732ZM30.9532 89C30.3932 89 30.1132 88.72 30.1132 88.16V79.7C30.1132 79.14 30.3932 78.86 30.9532 78.86C31.5132 78.86 31.7932 79.14 31.7932 79.7V88.16C31.7932 88.72 31.5132 89 30.9532 89ZM39.393 89C38.0664 89 37.0797 88.68 36.433 88.04C35.793 87.3933 35.473 86.4067 35.473 85.08V82.78C35.473 81.4467 35.793 80.46 36.433 79.82C37.0797 79.18 38.0664 78.86 39.393 78.86H43.273V75.76C43.273 75.2 43.553 74.92 44.113 74.92C44.673 74.92 44.953 75.2 44.953 75.76V88.16C44.953 88.72 44.673 89 44.113 89C43.553 89 43.273 88.72 43.273 88.16V88.02C42.9597 88.34 42.5497 88.5833 42.043 88.75C41.5364 88.9167 40.9064 89 40.153 89H39.393ZM39.393 87.32H40.153C41.033 87.32 41.773 87.2067 42.373 86.98C42.973 86.7533 43.273 86.4067 43.273 85.94V80.54H39.393C38.5264 80.54 37.9364 80.7 37.623 81.02C37.3097 81.3333 37.153 81.92 37.153 82.78V85.08C37.153 85.9467 37.3097 86.5367 37.623 86.85C37.943 87.1633 38.533 87.32 39.393 87.32ZM51.3218 93C50.5151 93 49.8785 92.8367 49.4118 92.51C48.9518 92.1833 48.6551 91.6867 48.5218 91.02C48.4751 90.74 48.5251 90.52 48.6718 90.36C48.8185 90.2 49.0418 90.12 49.3418 90.12C49.5951 90.12 49.7785 90.1867 49.8918 90.32C50.0118 90.46 50.1151 90.6667 50.2018 90.94C50.2818 91.0867 50.4051 91.1867 50.5718 91.24C50.7451 91.2933 50.9951 91.32 51.3218 91.32H55.0418C55.5418 91.32 55.8651 91.24 56.0118 91.08C56.1651 90.9267 56.2418 90.6067 56.2418 90.12V87.79C55.8818 88.1833 55.4351 88.4833 54.9018 88.69C54.3751 88.8967 53.7818 89 53.1218 89H52.3618C51.0351 89 50.0485 88.68 49.4018 88.04C48.7618 87.4 48.4418 86.42 48.4418 85.1V82.78C48.4418 81.44 48.7585 80.4533 49.3918 79.82C50.0318 79.18 51.0218 78.86 52.3618 78.86H54.0018C54.4751 78.86 54.8985 78.93 55.2718 79.07C55.6518 79.21 55.9751 79.4233 56.2418 79.71V79.7C56.2418 79.14 56.5218 78.86 57.0818 78.86C57.6418 78.86 57.9218 79.14 57.9218 79.7V90.12C57.9218 91.1 57.6851 91.8233 57.2118 92.29C56.7451 92.7633 56.0218 93 55.0418 93H51.3218ZM52.3618 87.32H53.1218C54.0018 87.32 54.7418 87.21 55.3418 86.99C55.9418 86.77 56.2418 86.42 56.2418 85.94V81.94C56.2418 81.4 56.0451 81.0333 55.6518 80.84C55.2651 80.64 54.7151 80.54 54.0018 80.54H52.3618C51.5018 80.54 50.9118 80.6933 50.5918 81C50.2785 81.3067 50.1218 81.9 50.1218 82.78V85.1C50.1218 85.9467 50.2785 86.53 50.5918 86.85C50.9051 87.1633 51.4951 87.32 52.3618 87.32ZM63.0905 84.62V85.1C63.0905 85.96 63.2472 86.5467 63.5605 86.86C63.8739 87.1667 64.4639 87.32 65.3305 87.32H66.9705C67.6505 87.32 68.1539 87.2567 68.4805 87.13C68.8072 87.0033 69.0239 86.78 69.1305 86.46C69.2039 86.2067 69.3039 86.0133 69.4305 85.88C69.5639 85.7467 69.7639 85.68 70.0305 85.68C70.3105 85.68 70.5239 85.7533 70.6705 85.9C70.8172 86.0467 70.8639 86.26 70.8105 86.54C70.6639 87.3667 70.2705 87.9833 69.6305 88.39C68.9905 88.7967 68.1039 89 66.9705 89H65.3305C64.0039 89 63.0172 88.68 62.3705 88.04C61.7305 87.4 61.4105 86.42 61.4105 85.1V82.78C61.4105 81.4267 61.7305 80.4333 62.3705 79.8C63.0172 79.16 64.0039 78.8467 65.3305 78.86H66.9705C68.3039 78.86 69.2905 79.18 69.9305 79.82C70.5705 80.4533 70.8905 81.44 70.8905 82.78V83.78C70.8905 84.34 70.6105 84.62 70.0505 84.62H63.0905ZM65.3305 80.54C64.4639 80.5267 63.8739 80.6767 63.5605 80.99C63.2472 81.3033 63.0905 81.9 63.0905 82.78V82.94H69.2105V82.78C69.2105 81.9067 69.0539 81.3167 68.7405 81.01C68.4339 80.6967 67.8439 80.54 66.9705 80.54H65.3305ZM81.6954 93C81.1354 93 80.8554 92.72 80.8554 92.16V79.7C80.8554 79.14 81.1354 78.86 81.6954 78.86C82.2554 78.86 82.5354 79.14 82.5354 79.7V79.95C82.8954 79.59 83.3387 79.32 83.8654 79.14C84.3987 78.9533 84.9954 78.86 85.6554 78.86H86.4154C87.7487 78.86 88.7354 79.18 89.3754 79.82C90.0154 80.46 90.3354 81.4467 90.3354 82.78V85.08C90.3354 86.4067 90.0154 87.3933 89.3754 88.04C88.7354 88.68 87.7487 89 86.4154 89H82.5354V92.16C82.5354 92.72 82.2554 93 81.6954 93ZM82.5354 87.32H86.4154C87.2887 87.32 87.8787 87.1633 88.1854 86.85C88.4987 86.5367 88.6554 85.9467 88.6554 85.08V82.78C88.6554 81.9067 88.4987 81.3167 88.1854 81.01C87.8787 80.6967 87.2887 80.54 86.4154 80.54H85.6554C84.8221 80.54 84.1021 80.64 83.4954 80.84C82.8887 81.04 82.5687 81.3567 82.5354 81.79V87.32ZM97.0395 89C96.0195 89 95.2595 88.75 94.7595 88.25C94.2661 87.7433 94.0195 86.98 94.0195 85.96V75.76C94.0195 75.2 94.2995 74.92 94.8595 74.92C95.4195 74.92 95.6995 75.2 95.6995 75.76V85.96C95.6995 86.5 95.7861 86.8633 95.9595 87.05C96.1395 87.23 96.4995 87.32 97.0395 87.32C97.6128 87.32 97.8995 87.6 97.8995 88.16C97.9195 88.72 97.6328 89 97.0395 89ZM103.604 89C102.484 89 101.651 88.7267 101.104 88.18C100.558 87.6333 100.284 86.8 100.284 85.68C100.284 84.56 100.554 83.7267 101.094 83.18C101.641 82.6333 102.478 82.36 103.604 82.36H107.834C107.794 81.66 107.611 81.1833 107.284 80.93C106.958 80.67 106.398 80.54 105.604 80.54H104.444C103.778 80.54 103.281 80.5867 102.954 80.68C102.628 80.7667 102.398 80.9267 102.264 81.16C102.144 81.44 102.021 81.6333 101.894 81.74C101.768 81.8467 101.578 81.9 101.324 81.9C101.044 81.9 100.824 81.8233 100.664 81.67C100.504 81.51 100.458 81.3 100.524 81.04C100.724 80.2867 101.141 79.7367 101.774 79.39C102.414 79.0367 103.304 78.86 104.444 78.86H105.604C106.938 78.86 107.924 79.18 108.564 79.82C109.204 80.46 109.524 81.4467 109.524 82.78V88.16C109.524 88.72 109.244 89 108.684 89C108.124 89 107.844 88.72 107.844 88.16V87.71C107.131 88.57 106.091 89 104.724 89H103.604ZM103.604 87.32H104.724C105.218 87.32 105.681 87.2767 106.114 87.19C106.548 87.0967 106.918 86.93 107.224 86.69C107.538 86.45 107.744 86.1067 107.844 85.66V84.04H103.604C102.944 84.04 102.504 84.15 102.284 84.37C102.071 84.59 101.964 85.0267 101.964 85.68C101.964 86.34 102.071 86.78 102.284 87C102.504 87.2133 102.944 87.32 103.604 87.32ZM117.772 89C116.452 89 115.479 88.6867 114.852 88.06C114.225 87.4333 113.912 86.4667 113.912 85.16V80.54H112.932C112.372 80.54 112.092 80.26 112.092 79.7C112.092 79.14 112.372 78.86 112.932 78.86H113.912V77.4C113.912 76.84 114.192 76.56 114.752 76.56C115.312 76.56 115.592 76.84 115.592 77.4V78.86H117.892C118.452 78.86 118.732 79.14 118.732 79.7C118.732 80.26 118.452 80.54 117.892 80.54H115.592V85.16C115.592 86.0067 115.745 86.58 116.052 86.88C116.359 87.1733 116.932 87.32 117.772 87.32C118.032 87.32 118.235 87.3867 118.382 87.52C118.535 87.6533 118.612 87.8667 118.612 88.16C118.612 88.72 118.332 89 117.772 89ZM122.27 84.62V85.1C122.27 85.96 122.427 86.5467 122.74 86.86C123.054 87.1667 123.644 87.32 124.51 87.32H126.15C126.83 87.32 127.334 87.2567 127.66 87.13C127.987 87.0033 128.204 86.78 128.31 86.46C128.384 86.2067 128.484 86.0133 128.61 85.88C128.744 85.7467 128.944 85.68 129.21 85.68C129.49 85.68 129.704 85.7533 129.85 85.9C129.997 86.0467 130.044 86.26 129.99 86.54C129.844 87.3667 129.45 87.9833 128.81 88.39C128.17 88.7967 127.284 89 126.15 89H124.51C123.184 89 122.197 88.68 121.55 88.04C120.91 87.4 120.59 86.42 120.59 85.1V82.78C120.59 81.4267 120.91 80.4333 121.55 79.8C122.197 79.16 123.184 78.8467 124.51 78.86H126.15C127.484 78.86 128.47 79.18 129.11 79.82C129.75 80.4533 130.07 81.44 130.07 82.78V83.78C130.07 84.34 129.79 84.62 129.23 84.62H122.27ZM124.51 80.54C123.644 80.5267 123.054 80.6767 122.74 80.99C122.427 81.3033 122.27 81.9 122.27 82.78V82.94H128.39V82.78C128.39 81.9067 128.234 81.3167 127.92 81.01C127.614 80.6967 127.024 80.54 126.15 80.54H124.51Z" fill="#DEF4F6"/>
<path fill-rule="evenodd" clip-rule="evenodd" d="M99.4544 67.1034C105.789 59.9817 109.637 50.5995 109.637 40.3185C109.637 18.0512 91.5857 0 69.3185 0C47.0512 0 29 18.0512 29 40.3185C29 50.5995 32.8481 59.9817 39.1825 67.1034H69.2526H99.4544Z" fill="#F7FED0"/>
<path fill-rule="evenodd" clip-rule="evenodd" d="M105.943 43.0904C105.943 52.2482 102.516 60.6055 96.8733 66.9493H69.9708H43.1857C37.5433 60.6055 34.1156 52.2482 34.1156 43.0904C34.1156 23.2557 50.1948 7.17645 70.0295 7.17645C89.8642 7.17645 105.943 23.2557 105.943 43.0904ZM102.679 42.1597C102.679 50.632 99.5624 58.3636 94.4329 64.2325H69.9761H45.6261C40.4966 58.3636 37.3805 50.632 37.3805 42.1597C37.3805 23.8099 51.9979 8.93447 70.0295 8.93447C88.0611 8.93447 102.679 23.8099 102.679 42.1597Z" fill="#2A4B45"/>
<path fill-rule="evenodd" clip-rule="evenodd" d="M0 66.5344V68.3412H139V66.5344H0Z" fill="#112A3A"/>
<path d="M75.7686 65.0584C75.7686 64.4166 75.1346 63.9674 74.5187 64.1478C72.8514 64.6363 71.226 64.911 69.6706 64.9043V64.9043C69.6077 64.9041 69.5565 64.9491 69.5565 65.0121V65.4351C69.5565 65.7272 69.7924 65.9643 70.0845 65.9658L74.8324 65.9898C75.3487 65.9925 75.7686 65.5746 75.7686 65.0584V65.0584Z" stroke="#C6EEE7" stroke-width="2"/>
<path d="M81.9811 62.5231C81.9811 61.7496 81.1388 61.2666 80.458 61.6338C79.1042 62.364 77.7593 62.9958 76.4353 63.5004C76.0383 63.6518 75.7693 64.0286 75.7693 64.4535V64.9985C75.7693 65.5488 76.2139 65.9957 76.7642 65.9985L80.976 66.0201C81.5303 66.0229 81.9811 65.5744 81.9811 65.0201V62.5231Z" stroke="#C6EEE7" stroke-width="2"/>
<path d="M88.1936 58.5594C88.1936 57.7314 87.2423 57.2591 86.5718 57.7451C85.2099 58.7324 83.84 59.6547 82.4723 60.4824C82.1692 60.6659 81.9814 60.993 81.9814 61.3472V65.0316C81.9814 65.5819 82.4261 66.0288 82.9764 66.0316L87.1885 66.0529C87.7428 66.0557 88.1936 65.6072 88.1936 65.0529V58.5594Z" stroke="#C6EEE7" stroke-width="2"/>
<path d="M94.4061 53.5527C94.4061 52.6861 93.3771 52.2277 92.7254 52.7989C91.3701 53.987 89.9919 55.1441 88.5861 56.2344C88.3399 56.4255 88.1943 56.7189 88.1943 57.0306V65.0618C88.1943 65.6121 88.6389 66.059 89.1892 66.0618L93.401 66.0834C93.9553 66.0862 94.4061 65.6377 94.4061 65.0834V53.5527Z" stroke="#C6EEE7" stroke-width="2"/>
<path d="M100.617 45.2999C100.617 45.2997 100.617 45.2996 100.616 45.2997C98.7646 47.189 96.8049 49.1175 94.7339 51.0036C94.5247 51.194 94.4047 51.4635 94.4047 51.7464V65.0936C94.4047 65.6439 94.8494 66.0908 95.3997 66.0936L99.6118 66.1149C100.166 66.1177 100.617 65.6692 100.617 65.1149V45.2999V45.2999Z" stroke="#C6EEE7" stroke-width="2"/>
<path d="M106.829 38.6027C106.829 38.6029 106.829 38.6031 106.829 38.6033C105.083 40.5738 103.151 42.7022 100.903 45.0071C100.72 45.1945 100.618 45.4459 100.618 45.7077V65.1245C100.618 65.6748 101.062 66.1217 101.612 66.1245L105.824 66.1461C106.379 66.1489 106.829 65.7004 106.829 65.1461V38.6027V38.6027Z" stroke="#C6EEE7" stroke-width="2"/>
<path d="M119.253 40.0311C119.253 40.0313 119.252 40.0314 119.252 40.0312L113.813 32.3469C113.427 31.8021 112.624 31.7785 112.202 32.2957C111.213 33.5083 109.405 35.6865 107.081 38.3187C106.919 38.5019 106.829 38.7385 106.829 38.9829V65.1572C106.829 65.7075 107.273 66.1544 107.824 66.1572L118.248 66.2103C118.802 66.2132 119.253 65.7646 119.253 65.2103V40.0311V40.0311Z" stroke="#C6EEE7" stroke-width="2"/>
<path d="M125.465 48.809C125.465 48.8086 125.465 48.8083 125.465 48.808L121.069 42.5985C120.506 41.8027 119.253 42.2012 119.253 43.1763V65.2222C119.253 65.7725 119.698 66.2194 120.248 66.2222L124.46 66.2435C125.014 66.2463 125.465 65.7978 125.465 65.2435V48.809V48.809Z" stroke="#C6EEE7" stroke-width="2"/>
<path d="M131.678 57.9015C131.678 57.6945 131.613 57.4926 131.494 57.3237L127.282 51.3738C126.719 50.578 125.466 50.9765 125.466 51.9516V65.2528C125.466 65.8031 125.91 66.25 126.461 66.2528L130.673 66.2744C131.227 66.2772 131.678 65.8287 131.678 65.2744V57.9015Z" stroke="#C6EEE7" stroke-width="2"/>
<path d="M133.494 60.149C132.931 59.3532 131.678 59.7518 131.678 60.7268V65.2846C131.678 65.8349 132.122 66.2818 132.673 66.2846L135.911 66.3011C136.724 66.3052 137.202 65.3875 136.732 64.7233L133.494 60.149Z" stroke="#C6EEE7" stroke-width="2"/>
<path d="M63.3453 65.0584C63.3453 64.4166 63.9793 63.9674 64.5951 64.1478C66.2625 64.6363 67.8879 64.911 69.4432 64.9043V64.9043C69.5062 64.9041 69.5574 64.9491 69.5574 65.0121V65.4351C69.5574 65.7272 69.3215 65.9643 69.0294 65.9658L64.2815 65.9898C63.7652 65.9925 63.3453 65.5747 63.3453 65.0584V65.0584Z" stroke="#C6EEE7" stroke-width="2"/>
<path d="M57.1328 62.5231C57.1328 61.7496 57.9751 61.2666 58.6559 61.6338C60.0097 62.364 61.3546 62.9958 62.6786 63.5004C63.0756 63.6518 63.3446 64.0286 63.3446 64.4535V64.9985C63.3446 65.5488 62.9 65.9957 62.3498 65.9985L58.1379 66.0201C57.5837 66.0229 57.1328 65.5744 57.1328 65.0201V62.5231Z" stroke="#C6EEE7" stroke-width="2"/>
<path d="M50.9203 58.5594C50.9203 57.7314 51.8716 57.2591 52.5421 57.7451C53.904 58.7324 55.2739 59.6547 56.6416 60.4824C56.9447 60.6659 57.1324 60.993 57.1324 61.3472V65.0316C57.1324 65.5819 56.6878 66.0288 56.1375 66.0316L51.9254 66.0529C51.3711 66.0557 50.9203 65.6072 50.9203 65.0529V58.5594Z" stroke="#C6EEE7" stroke-width="2"/>
<path d="M44.7095 53.5527C44.7095 52.6861 45.7385 52.2277 46.3901 52.7989C47.7455 53.987 49.1237 55.1441 50.5294 56.2344C50.7757 56.4255 50.9213 56.7189 50.9213 57.0306V65.0618C50.9213 65.6121 50.4767 66.059 49.9264 66.0618L45.7146 66.0834C45.1603 66.0862 44.7095 65.6377 44.7095 65.0834V53.5527Z" stroke="#C6EEE7" stroke-width="2"/>
<path d="M38.4969 45.2999C38.4969 45.2997 38.4972 45.2996 38.4973 45.2997C40.3492 47.189 42.3089 49.1175 44.38 51.0036C44.5891 51.194 44.7091 51.4635 44.7091 51.7464V65.0936C44.7091 65.6439 44.2645 66.0908 43.7142 66.0936L39.502 66.1149C38.9478 66.1177 38.4969 65.6692 38.4969 65.1149V45.2999V45.2999Z" stroke="#C6EEE7" stroke-width="2"/>
<path d="M32.2845 38.6027C32.2845 38.6029 32.2846 38.6031 32.2848 38.6033C34.0307 40.5738 35.9634 42.7022 38.2107 45.0071C38.3935 45.1945 38.4964 45.4459 38.4964 45.7077V65.1245C38.4964 65.6748 38.0518 66.1217 37.5015 66.1245L33.2897 66.1461C32.7354 66.1489 32.2845 65.7004 32.2845 65.1461V38.6027V38.6027Z" stroke="#C6EEE7" stroke-width="2"/>
<path d="M19.861 40.0311C19.861 40.0313 19.8612 40.0314 19.8613 40.0312L25.3009 32.3469C25.6865 31.8021 26.4893 31.7785 26.9113 32.2957C27.9006 33.5083 29.709 35.6865 32.033 38.3187C32.1947 38.5019 32.2849 38.7385 32.2849 38.9829V65.1572C32.2849 65.7075 31.8403 66.1544 31.29 66.1572L20.8661 66.2103C20.3118 66.2132 19.861 65.7646 19.861 65.2103V40.0311V40.0311Z" stroke="#C6EEE7" stroke-width="2"/>
<path d="M13.6488 48.809C13.6488 48.8086 13.6489 48.8083 13.6491 48.808L18.0448 42.5985C18.6081 41.8027 19.861 42.2012 19.861 43.1763V65.2222C19.861 65.7725 19.4163 66.2194 18.866 66.2222L14.6539 66.2435C14.0996 66.2463 13.6488 65.7978 13.6488 65.2435V48.809V48.809Z" stroke="#C6EEE7" stroke-width="2"/>
<path d="M7.43689 57.9015C7.43689 57.6945 7.50111 57.4926 7.62069 57.3237L11.8325 51.3738C12.3958 50.578 13.6487 50.9765 13.6487 51.9516V65.2528C13.6487 65.8031 13.2041 66.25 12.6538 66.2528L8.44201 66.2744C7.88773 66.2772 7.43689 65.8287 7.43689 65.2744V57.9015Z" stroke="#C6EEE7" stroke-width="2"/>
<path d="M5.62069 60.149C6.18402 59.3532 7.43689 59.7518 7.43689 60.7268V65.2846C7.43689 65.8349 6.99227 66.2818 6.44198 66.2846L3.20395 66.3011C2.3902 66.3052 1.91249 65.3875 2.38265 64.7233L5.62069 60.149Z" stroke="#C6EEE7" stroke-width="2"/>
<path fill-rule="evenodd" clip-rule="evenodd" d="M26.0398 30.2962C24.8302 30.3042 23.8642 30.7341 23.8812 31.2569V68.6888C23.8392 69.97 28.307 69.97 28.2651 68.6888V31.2569C28.2826 30.7228 27.2755 30.288 26.0398 30.2962Z" fill="url(#paint0_linear_73_2)"/>
<path fill-rule="evenodd" clip-rule="evenodd" d="M113.071 30.5104C111.861 30.5183 110.895 30.9483 110.912 31.4711V68.903C110.87 70.1842 115.338 70.1842 115.296 68.903V31.4711C115.313 30.937 114.306 30.5022 113.071 30.5104Z" fill="url(#paint1_linear_73_2)"/>
<path d="M59.3868 39.8872V27.8022L70.1277 22.7854V39.8872H59.3868Z" fill="#78D6C6" stroke="#112A3A"/>
<path d="M59.3198 39.7308L70.6278 34.1702L81.9357 39.7308V50.7211L70.6278 56.2817L59.3198 50.7211V39.7308Z" fill="#78D6C6" stroke="#112A3A"/>
<path d="M70.5727 33.564L58.8868 39.2398L58.9821 27.7481L70.5727 33.564Z" fill="#112A3A"/>
<path d="M81.965 39.8678L70.5644 45.7085L70.5138 34.0992L81.965 39.8678Z" fill="#112A3A"/>
<path d="M58.9663 50.4465L70.4607 56.1526L70.3229 44.5438L58.9663 50.4465Z" fill="#112A3A"/>
<defs>
<linearGradient id="paint0_linear_73_2" x1="25.1517" y1="77.6713" x2="29.8864" y2="77.6632" gradientUnits="userSpaceOnUse">
<stop stop-color="#8B8080"/>
<stop offset="0.68125" stop-color="#D9D9D9"/>
</linearGradient>
<linearGradient id="paint1_linear_73_2" x1="112.183" y1="77.8854" x2="116.917" y2="77.8774" gradientUnits="userSpaceOnUse">
<stop stop-color="#D9D9D9"/>
<stop offset="0.535416" stop-color="#8B8080"/>
</linearGradient>
</defs>
</svg>
