<svg width="132" height="124" viewBox="0 0 132 124" fill="none" xmlns="http://www.w3.org/2000/svg">
<path d="M9.29968 30.0171C54.2667 16.939 78.5192 17.6882 131.466 30.0171L118.566 75.5L109.082 108.885C95.5515 105.132 92.0676 108.505 80.2497 113.06L26.4257 108.885L9.29968 30.0171Z" fill="#27321D"/>
<path d="M18.798 69.5072L12.6892 29.314C29.4077 26.0122 39.272 24.874 53.3097 24.1152C31.6841 32.4619 18.0258 44.2232 20.721 70.8037C19.6838 70.0258 19.9444 70.31 18.798 69.5072Z" fill="#B11655"/>
<path fill-rule="evenodd" clip-rule="evenodd" d="M20.906 71.9221L18.9058 70.5444L26.5963 114.887C49.8014 123.486 61.2665 120.864 81.1404 113.412L62.5877 100.632C39.5372 104.267 23.9005 88.2768 20.906 71.9221Z" fill="#CD4B69"/>
<circle cx="56.7243" cy="63.5725" r="35.2839" fill="#FDFACD"/>
<path d="M128.342 29.1498C96.1816 23.3564 83.2821 22.2182 62.0359 23.7358C105.667 36.6353 105.522 85.6266 65.5886 100.67C102.67 92.113 123.415 49.8947 128.342 29.1498Z" fill="#CD4B69"/>
<path d="M82.5233 112.339C79.6708 110.265 72.5899 105.856 66.3665 101.708C93.8534 95.2247 112.925 69.6702 124.076 46.0729C111.895 102.13 114.598 95.7434 110.709 112.339C99.7945 109.585 93.4869 108.216 82.5233 112.339Z" fill="#B11655"/>
<path fill-rule="evenodd" clip-rule="evenodd" d="M68.2348 53.0776C69.6308 53.8644 69.5809 55.8913 68.1479 56.6085L63.3205 59.0245C59.738 60.8174 59.6134 65.8847 63.1033 67.8516L72.8896 73.3671C74.2855 74.1538 74.2357 76.1808 72.8027 76.8979L49.4579 88.5814C48.1087 89.2566 46.5263 88.2519 46.5634 86.7437L46.9833 69.6761C47.0112 68.5401 45.8193 67.7833 44.8031 68.2919C43.454 68.9671 41.8715 67.9624 41.9086 66.4542L42.5114 41.9535C42.5485 40.4453 44.1784 39.5196 45.4927 40.2604L68.2348 53.0776ZM60.425 57.8846C61.858 57.1674 61.9078 55.1405 60.5119 54.3538L51.4924 49.2705C50.1781 48.5298 48.5482 49.4554 48.5111 50.9636L48.272 60.6805C48.2349 62.1887 49.8174 63.1934 51.1665 62.5182L60.425 57.8846Z" fill="#191616"/>
<path d="M68.8624 73.566C70.2584 74.3528 70.2085 76.3797 68.7756 77.0969L50.9695 86.0083C49.6204 86.6835 48.038 85.6788 48.0751 84.1706L48.5348 65.483C48.5719 63.9748 50.2019 63.0491 51.5162 63.7898L68.8624 73.566Z" fill="#FFFDFE"/>
</svg>
